# xmcd
#
# Track frame offsets: 
#        150
#        10770
#        29208
#        54141
#        76500
#        108725
#        133278
#        153263
#        184347
#        201406
#        224823
#        248216
#        269816
#        309021
#
# Disc length: 4613 seconds
#
# Revision: 1
# Processed by: cddbd v1.5.2PL0 Copyright (c) Steve Scherf et al.
# Submitted via: ExactAudioCopy v0.95b3
#
DISCID=cc12030e
DTITLE=Lobi Traoré - Mali Blue
DYEAR=2005
DGENRE=World
TTITLE0=Warani
TTITLE1=Sadiourou
TTITLE2=Nama da Yele
TTITLE3=Dunya
TTITLE4=A Magni
TTITLE5=Moryene kalan
TTITLE6=Ni Tougou la Mogo Miko
TTITLE7=Wolodennu
TTITLE8=Tiekoroba
TTITLE9=Tjounde
TTITLE10=Maya Ye Sanka Ye
TTITLE11=Fatouma Be
TTITLE12=Anun Ka Ben
TTITLE13=Ni Tougou la Mogo Miko (Live)
EXTD=www.bluesweb.com
EXTT0=
EXTT1=
EXTT2=
EXTT3=
EXTT4=
EXTT5=
EXTT6=
EXTT7=
EXTT8=
EXTT9=
EXTT10=
EXTT11=
EXTT12=
EXTT13=
PLAYORDER=
